<?xml version="1.0" encoding="utf-8"?>
<!-- Generator: Adobe Illustrator 14.0.0, SVG Export Plug-In . SVG Version: 6.00 Build 43363)  -->
<!DOCTYPE svg PUBLIC "-//W3C//DTD SVG 1.1//EN" "http://www.w3.org/Graphics/SVG/1.1/DTD/svg11.dtd">
<svg version="1.1" id="Layer_1" xmlns="http://www.w3.org/2000/svg" xmlns:xlink="http://www.w3.org/1999/xlink" x="0px" y="0px"
	 width="250px" height="66px" viewBox="0 0 250 66" enable-background="new 0 0 250 66" xml:space="preserve">
<g>
	<g>
		<defs>
			<path id="SVGID_1_" d="M13.82,59.479l2.664,1.764c12.61-9.164,33.833-19.914,33.833-19.914l13.231-13.307
				C16.839,45.822,13.82,59.479,13.82,59.479"/>
		</defs>
		<clipPath id="SVGID_2_">
			<use xlink:href="#SVGID_1_"  overflow="visible"/>
		</clipPath>
		
			<linearGradient id="SVGID_3_" gradientUnits="userSpaceOnUse" x1="-373.5259" y1="533.4609" x2="-373.3481" y2="533.4609" gradientTransform="matrix(280 0 0 -280 104601 149413.75)">
			<stop  offset="0" style="stop-color:#838382"/>
			<stop  offset="0.5" style="stop-color:#BBBBB9"/>
			<stop  offset="1" style="stop-color:#848382"/>
		</linearGradient>
		<rect x="13.82" y="28.021" clip-path="url(#SVGID_2_)" fill="url(#SVGID_3_)" width="49.729" height="33.221"/>
	</g>
	<g>
		<defs>
			<path id="SVGID_4_" d="M24.654,66c18.648-8.723,38.895-26.523,38.895-26.523c2.397-9.429,0-11.455,0-11.455
				C57.155,35.07,24.654,66,24.654,66"/>
		</defs>
		<clipPath id="SVGID_5_">
			<use xlink:href="#SVGID_4_"  overflow="visible"/>
		</clipPath>
		
			<linearGradient id="SVGID_6_" gradientUnits="userSpaceOnUse" x1="-373.5103" y1="533.502" x2="-373.3326" y2="533.502" gradientTransform="matrix(225 0 0 -225 84064.5 120084.625)">
			<stop  offset="0" style="stop-color:#7A1318"/>
			<stop  offset="0.5" style="stop-color:#BE2528"/>
			<stop  offset="1" style="stop-color:#7A1218"/>
		</linearGradient>
		<rect x="24.654" y="28.021" clip-path="url(#SVGID_5_)" fill="url(#SVGID_6_)" width="41.292" height="37.979"/>
	</g>
	<g>
		<defs>
			<path id="SVGID_7_" d="M0.056,28.814c-0.622,12.248,4.174,19.121,4.174,19.121C-0.744,31.458,45.789,0,45.789,0
				C6.361,9.957,0.056,28.814,0.056,28.814"/>
		</defs>
		<clipPath id="SVGID_8_">
			<use xlink:href="#SVGID_7_"  overflow="visible"/>
		</clipPath>
		
			<linearGradient id="SVGID_9_" gradientUnits="userSpaceOnUse" x1="-373.1938" y1="533.082" x2="-373.0161" y2="533.082" gradientTransform="matrix(257.8131 0 0 -257.8131 96214.1797 137459.6406)">
			<stop  offset="0" style="stop-color:#7A1318"/>
			<stop  offset="0.5" style="stop-color:#BE2528"/>
			<stop  offset="1" style="stop-color:#7A1218"/>
		</linearGradient>
		<rect x="-0.744" clip-path="url(#SVGID_8_)" fill="url(#SVGID_9_)" width="46.532" height="47.936"/>
	</g>
	<g>
		<defs>
			<path id="SVGID_10_" d="M0.684,38.348c1.338,6.184,3.546,9.588,3.546,9.588c3.108-5.021,51.949-35.951,51.949-35.951
				l-5.506-5.023C12.932,21.677,0.684,38.348,0.684,38.348"/>
		</defs>
		<clipPath id="SVGID_11_">
			<use xlink:href="#SVGID_10_"  overflow="visible"/>
		</clipPath>
		
			<linearGradient id="SVGID_12_" gradientUnits="userSpaceOnUse" x1="-373.4321" y1="533.208" x2="-373.2544" y2="533.208" gradientTransform="matrix(312.4643 0 0 -312.4643 116685 166635.7813)">
			<stop  offset="0" style="stop-color:#838382"/>
			<stop  offset="0.5" style="stop-color:#BBBBB9"/>
			<stop  offset="1" style="stop-color:#848382"/>
		</linearGradient>
		<rect x="0.684" y="6.961" clip-path="url(#SVGID_11_)" fill="url(#SVGID_12_)" width="55.495" height="40.975"/>
	</g>
	<g>
		<defs>
			<path id="SVGID_13_" d="M6.449,51.813c2.342,4.332,7.371,7.666,7.371,7.666c15.984-20.707,48.131-38.771,48.131-38.771
				c-2.132-5.375-5.772-8.723-5.772-8.723C20.658,27.229,6.449,51.813,6.449,51.813"/>
		</defs>
		<clipPath id="SVGID_14_">
			<use xlink:href="#SVGID_13_"  overflow="visible"/>
		</clipPath>
		
			<linearGradient id="SVGID_15_" gradientUnits="userSpaceOnUse" x1="-373.5176" y1="533.332" x2="-373.3403" y2="533.332" gradientTransform="matrix(312.5 0 0 -312.5 116730.75 166702)">
			<stop  offset="0" style="stop-color:#7A1318"/>
			<stop  offset="0.5" style="stop-color:#BE2528"/>
			<stop  offset="1" style="stop-color:#7A1218"/>
		</linearGradient>
		<rect x="6.449" y="11.984" clip-path="url(#SVGID_14_)" fill="url(#SVGID_15_)" width="55.501" height="47.494"/>
	</g>
</g>
<g>
	<path d="M97.312,12.726h-7.675v13.568h-3.87V12.726h-7.643V9.782h19.188V12.726z"/>
	<path d="M121.917,26.294h-3.902V19.19h-12.093v7.104h-3.87V9.782h3.87v6.4h12.093v-6.4h3.902V26.294z"/>
	<path d="M147.619,26.294h-17.188V9.782h17.027v2.816h-13.157v3.68h7.675v2.816h-7.675v4.096h13.318V26.294z"/>
	<path d="M187.413,22.39c0,1.536-0.296,2.571-0.887,3.104c-0.592,0.533-1.672,0.8-3.241,0.8h-12.254c-1.57,0-2.65-0.267-3.241-0.8
		c-0.592-0.533-0.887-1.568-0.887-3.104v-8.704c0-1.536,0.295-2.571,0.887-3.104c0.591-0.533,1.671-0.8,3.241-0.8h12.254
		c1.569,0,2.649,0.267,3.241,0.8c0.591,0.533,0.887,1.568,0.887,3.104V22.39z M183.543,23.19V12.726h-12.771V23.19H183.543z"/>
	<path d="M215.113,26.294h-2.644l-12.223-10.208c-0.516-0.426-0.979-0.875-1.387-1.344c0.107,1.067,0.161,1.909,0.161,2.528v9.024
		h-3.482V9.782h2.645l11.706,9.728c0.838,0.704,1.472,1.302,1.902,1.792c-0.107-1.536-0.161-2.485-0.161-2.848V9.782h3.482V26.294z"
		/>
	<path d="M240.783,26.294h-17.188V9.782h17.027v2.816h-13.157v3.68h7.675v2.816h-7.675v4.096h13.318V26.294z"/>
</g>
<g>
	<path d="M86.173,38.207h-3.118v5.512h-1.572v-5.512h-3.105v-1.196h7.795V38.207z"/>
	<path d="M99.143,43.719H92.16v-6.708h6.917v1.144h-5.345v1.495h3.118v1.145h-3.118v1.664h5.411V43.719z"/>
	<path d="M113.357,42.133c0,0.624-0.12,1.044-0.36,1.261s-0.679,0.325-1.316,0.325h-4.035c-0.638,0-1.077-0.108-1.317-0.325
		s-0.36-0.637-0.36-1.261v-3.536c0-0.624,0.12-1.044,0.36-1.261s0.679-0.325,1.317-0.325h4.035c0.803,0,1.301,0.187,1.493,0.56
		c0.123,0.217,0.184,0.771,0.184,1.663l-1.572,0.247v-1.273h-4.245v4.251h4.245v-1.443l1.572,0.325V42.133z"/>
	<path d="M128.736,43.719h-1.584v-2.886h-4.914v2.886h-1.572v-6.708h1.572v2.6h4.914v-2.6h1.584V43.719z"/>
	<path d="M144.195,43.719h-1.074l-4.965-4.147c-0.209-0.173-0.396-0.354-0.563-0.546c0.043,0.434,0.064,0.776,0.064,1.027v3.666
		h-1.414v-6.708h1.074l4.756,3.952c0.34,0.286,0.598,0.528,0.773,0.728c-0.045-0.624-0.066-1.009-0.066-1.156v-3.523h1.414V43.719z"
		/>
	<path d="M159.891,42.133c0,0.624-0.121,1.044-0.361,1.261s-0.678,0.325-1.316,0.325h-4.979c-0.637,0-1.076-0.108-1.316-0.325
		s-0.359-0.637-0.359-1.261v-3.536c0-0.624,0.119-1.044,0.359-1.261s0.68-0.325,1.316-0.325h4.979c0.639,0,1.076,0.108,1.316,0.325
		s0.361,0.637,0.361,1.261V42.133z M158.318,42.458v-4.251h-5.188v4.251H158.318z"/>
	<path d="M173.908,43.719h-6.643v-6.708h1.572v5.447h5.07V43.719z"/>
	<path d="M188.463,42.133c0,0.624-0.119,1.044-0.359,1.261s-0.68,0.325-1.316,0.325h-4.979c-0.639,0-1.076-0.108-1.316-0.325
		s-0.361-0.637-0.361-1.261v-3.536c0-0.624,0.121-1.044,0.361-1.261s0.678-0.325,1.316-0.325h4.979c0.637,0,1.076,0.108,1.316,0.325
		s0.359,0.637,0.359,1.261V42.133z M186.893,42.458v-4.251h-5.189v4.251H186.893z"/>
	<path d="M203.713,42.133c0,0.624-0.121,1.044-0.361,1.261s-0.678,0.325-1.316,0.325h-4.664c-0.637,0-1.076-0.108-1.316-0.325
		s-0.359-0.637-0.359-1.261v-3.536c0-0.624,0.119-1.044,0.359-1.261s0.68-0.325,1.316-0.325h4.664c0.674,0,1.121,0.114,1.344,0.345
		c0.223,0.229,0.334,0.674,0.334,1.332l-1.533,0.273v-0.754h-4.912v4.251h4.912v-1.495h-2.568v-1.145h4.102V42.133z"/>
	<path d="M212.674,43.719h-1.572v-6.708h1.572V43.719z"/>
	<path d="M227.176,43.719h-6.982v-6.708h6.916v1.144h-5.344v1.495h3.117v1.145h-3.117v1.664h5.41V43.719z"/>
	<path d="M241.48,42.133c0,0.624-0.121,1.044-0.365,1.261c-0.246,0.217-0.686,0.325-1.324,0.325h-4.18
		c-0.689,0-1.143-0.121-1.361-0.364c-0.219-0.242-0.328-0.71-0.328-1.403l1.389-0.286v0.793h4.781v-1.534h-4.217
		c-0.639,0-1.078-0.108-1.318-0.325s-0.359-0.637-0.359-1.261v-0.741c0-0.624,0.119-1.044,0.359-1.261s0.68-0.325,1.318-0.325h3.838
		c0.646,0,1.088,0.11,1.322,0.331c0.236,0.222,0.354,0.648,0.354,1.281L240,38.947v-0.767h-4.428v1.443h4.219
		c0.639,0,1.078,0.108,1.324,0.325c0.244,0.216,0.365,0.637,0.365,1.261V42.133z"/>
</g>
<g>
	<path fill="#B92328" d="M100.711,56.461c0,0.576-0.111,0.964-0.333,1.164s-0.627,0.3-1.215,0.3h-4.595
		c-0.589,0-0.994-0.1-1.215-0.3s-0.333-0.588-0.333-1.164v-3.264c0-0.576,0.111-0.965,0.333-1.164
		c0.222-0.2,0.626-0.301,1.215-0.301h4.595c0.588,0,0.994,0.101,1.215,0.301c0.222,0.199,0.333,0.588,0.333,1.164V56.461z
		 M99.26,56.761v-3.924h-4.789v3.924H99.26z"/>
	<path fill="#B92328" d="M111.171,57.925h-2.08l-2.515-2.34h-1.378v2.34h-1.427v-6.192h5.345c0.935,0,1.403,0.4,1.403,1.2v1.452
		c0,0.6-0.242,0.972-0.726,1.116c-0.186,0.056-0.686,0.084-1.5,0.084L111.171,57.925z M109.116,54.037v-0.744
		c0-0.208-0.061-0.344-0.181-0.408c-0.089-0.056-0.246-0.084-0.472-0.084h-3.265v1.728h3.265c0.226,0,0.383-0.027,0.472-0.084
		C109.055,54.381,109.116,54.245,109.116,54.037z"/>
	<path fill="#B92328" d="M114.92,57.925h-1.451v-6.192h1.451V57.925z"/>
	<path fill="#B92328" d="M125.38,56.461c0,0.576-0.111,0.964-0.333,1.164s-0.627,0.3-1.215,0.3h-4.305c-0.589,0-0.994-0.1-1.215-0.3
		s-0.333-0.588-0.333-1.164v-3.264c0-0.576,0.111-0.965,0.333-1.164c0.222-0.2,0.626-0.301,1.215-0.301h4.305
		c0.621,0,1.034,0.106,1.239,0.318c0.206,0.212,0.309,0.622,0.309,1.23l-1.415,0.252v-0.696h-4.535v3.924h4.535v-1.38h-2.37v-1.056
		h3.785V56.461z"/>
	<path fill="#B92328" d="M129.904,57.925h-1.451v-6.192h1.451V57.925z"/>
	<path fill="#B92328" d="M140.424,57.925h-0.992l-4.582-3.828c-0.193-0.16-0.367-0.328-0.52-0.504
		c0.039,0.4,0.061,0.716,0.061,0.948v3.384h-1.307v-6.192h0.992l4.389,3.648c0.314,0.264,0.553,0.488,0.713,0.672
		c-0.039-0.576-0.061-0.932-0.061-1.068v-3.252h1.307V57.925z"/>
	<path fill="#B92328" d="M155.842,56.461c0,0.576-0.109,0.964-0.332,1.164s-0.627,0.3-1.215,0.3h-4.596
		c-0.588,0-0.994-0.1-1.215-0.3c-0.223-0.2-0.334-0.588-0.334-1.164v-3.264c0-0.576,0.111-0.965,0.334-1.164
		c0.221-0.2,0.627-0.301,1.215-0.301h4.596c0.588,0,0.992,0.101,1.215,0.301c0.223,0.199,0.332,0.588,0.332,1.164V56.461z
		 M154.391,56.761v-3.924h-4.789v3.924H154.391z"/>
	<path fill="#B92328" d="M165.215,52.813h-4.861v1.632h2.625v1.129h-2.625v2.352h-1.451v-6.192h6.313V52.813z"/>
	<path fill="#B92328" d="M179.025,57.925h-0.992l-4.584-3.828c-0.193-0.16-0.367-0.328-0.52-0.504
		c0.041,0.4,0.061,0.716,0.061,0.948v3.384h-1.307v-6.192h0.992l4.391,3.648c0.314,0.264,0.551,0.488,0.713,0.672
		c-0.041-0.576-0.061-0.932-0.061-1.068v-3.252h1.307V57.925z"/>
	<path fill="#B92328" d="M188.65,57.925h-6.445v-6.192h6.385v1.057h-4.934v1.38h2.879v1.056h-2.879v1.536h4.994V57.925z"/>
	<path fill="#B92328" d="M200.465,51.732l-2.406,6.192h-0.979l-1.719-4.284l-1.74,4.284h-1.004l-2.406-6.192h1.498l1.586,4.152
		l1.656-4.152h1.016l1.693,4.152l1.512-4.152H200.465z"/>
	<path fill="#B92328" d="M213.658,57.925h-6.445v-6.192h6.385v1.057h-4.934v1.38h2.879v1.056h-2.879v1.536h4.994V57.925z"/>
	<path fill="#B92328" d="M223.744,57.925h-2.08l-2.516-2.34h-1.379v2.34h-1.426v-6.192h5.344c0.936,0,1.402,0.4,1.402,1.2v1.452
		c0,0.6-0.24,0.972-0.725,1.116c-0.186,0.056-0.686,0.084-1.5,0.084L223.744,57.925z M221.688,54.037v-0.744
		c0-0.208-0.061-0.344-0.182-0.408c-0.088-0.056-0.246-0.084-0.471-0.084h-3.266v1.728h3.266c0.225,0,0.383-0.027,0.471-0.084
		C221.627,54.381,221.688,54.245,221.688,54.037z"/>
	<path fill="#B92328" d="M233.357,57.925h-1.631l-0.75-1.356h-3.955l-0.725,1.356h-1.451l3.531-6.192h1.402L233.357,57.925z
		 M230.371,55.453l-1.342-2.521l-1.391,2.521H230.371z"/>
</g>
</svg>
